<svg class="diagram-root" style="background: #f5f6f6" xmlns="http://www.w3.org/2000/svg" xmlns:xlink="http://www.w3.org/1999/xlink"><style>.diagram-root { font-family: "Helvetica Neue", sans-serif; font-size: 12px; } .t { overflow: visible; } .t-bg { y: 40; fill: #fff;   } .th { fill: #005aa0;   } .tht { fill: #fff; font-size: 14px;  } .tf { fill: #323c46; overflow: visible; } .tf.pk { fill: #005aa0; font-weight: bold; } .tf.fk { font-weight: bold; } .ty { fill: #adb1b5; font-weight: normal; text-anchor: end; } .r { fill: transparent; stroke: #c3c3c3; stroke-width: 1; } .l { stroke: 1; } .i { fill: #c2c7ce; stroke: #c2c7ce; } .i.ix { fill: #afb3b6; stroke: #000; } .fa { fill: transparent; overflow: visible; } .fa .bg.hover { fill: #f7f7f7; } .c { cy: 12; r: 4; stroke: #d2d2dc; fill: #d2d2dc; } .hr { fill: transparent; stroke: #323c46; stroke-opacity: 0.035; stroke-width: 13; } .dc { stroke: #fa5a3c; fill: #fa5a3c; } .x { stroke: white; stroke-width: 1; } .hl .th { fill: #1b9bff; } .hl .tht {  } .fhl .bg { fill: #e7f4ff; } .fhls .bg {  } .r.hl { stroke: #1b9bff; } .dim { opacity: 0.25; }</style><g class="drawing-wrapper" transform="translate(10, -174) scale(1,1)"><g class="rs"><path d="M 24 286 m -1, 0 a 1,1 0 1,0 2,0 a 1,1 0 1,0 -2,0 M 24 286 m -0.5, 0 a 0.5,0.5 0 1,0 1,0 a 0.5,0.5 0 1,0 -1,0  M24 286 L24 286 12 286 M 24 292 m -1, 0 a 1,1 0 1,0 2,0 a 1,1 0 1,0 -2,0 M 24 292 m -0.5, 0 a 0.5,0.5 0 1,0 1,0 a 0.5,0.5 0 1,0 -1,0  M24 292 L24 292 17 286 24 280 M 24 280 m -1, 0 a 1,1 0 1,0 2,0 a 1,1 0 1,0 -2,0 M 24 280 m -0.5, 0 a 0.5,0.5 0 1,0 1,0 a 0.5,0.5 0 1,0 -1,0  M12 286 C -28.619439046208484 286, -26.519439046208483 391, 8.5 391 M 20.5 391 m -1, 0 a 1,1 0 1,0 2,0 a 1,1 0 1,0 -2,0 M 20.5 391 m -0.5, 0 a 0.5,0.5 0 1,0 1,0 a 0.5,0.5 0 1,0 -1,0  M20.5 391 L20.5 391 8.5 391 M14.5 397 L14.5 397 14.5 385" id="h881960602" class="r"></path><path d="M 521.8 346 m -1, 0 a 1,1 0 1,0 2,0 a 1,1 0 1,0 -2,0 M 521.8 346 m -0.5, 0 a 0.5,0.5 0 1,0 1,0 a 0.5,0.5 0 1,0 -1,0  M521.8 346 L521.8 346 533.8 346 M 521.8 352 m -1, 0 a 1,1 0 1,0 2,0 a 1,1 0 1,0 -2,0 M 521.8 352 m -0.5, 0 a 0.5,0.5 0 1,0 1,0 a 0.5,0.5 0 1,0 -1,0  M521.8 352 L521.8 352 528.8 346 521.8 340 M 521.8 340 m -1, 0 a 1,1 0 1,0 2,0 a 1,1 0 1,0 -2,0 M 521.8 340 m -0.5, 0 a 0.5,0.5 0 1,0 1,0 a 0.5,0.5 0 1,0 -1,0  M533.8 346 C 578.3291151944433 346, 581.2271151944432 479.5, 528.97 479.5 M 516.97 479.5 m -1, 0 a 1,1 0 1,0 2,0 a 1,1 0 1,0 -2,0 M 516.97 479.5 m -0.5, 0 a 0.5,0.5 0 1,0 1,0 a 0.5,0.5 0 1,0 -1,0  M516.97 479.5 L516.97 479.5 528.97 479.5 M522.97 485.5 L522.97 485.5 522.97 473.5" id="h1472614719" class="r"></path><path d="M 12 583 m -1, 0 a 1,1 0 1,0 2,0 a 1,1 0 1,0 -2,0 M 12 583 m -0.5, 0 a 0.5,0.5 0 1,0 1,0 a 0.5,0.5 0 1,0 -1,0  M12 583 L12 583 0 583 M 12 589 m -1, 0 a 1,1 0 1,0 2,0 a 1,1 0 1,0 -2,0 M 12 589 m -0.5, 0 a 0.5,0.5 0 1,0 1,0 a 0.5,0.5 0 1,0 -1,0  M12 589 L12 589 5 583 12 577 M 12 577 m -1, 0 a 1,1 0 1,0 2,0 a 1,1 0 1,0 -2,0 M 12 577 m -0.5, 0 a 0.5,0.5 0 1,0 1,0 a 0.5,0.5 0 1,0 -1,0  M0 583 C -50 583, -57.2 261, 12 261 M 24 261 m -1, 0 a 1,1 0 1,0 2,0 a 1,1 0 1,0 -2,0 M 24 261 m -0.5, 0 a 0.5,0.5 0 1,0 1,0 a 0.5,0.5 0 1,0 -1,0  M24 261 L24 261 12 261 M18 267 L18 267 18 255" id="h824819922" class="r"></path><path d="M 207.8 608 m -1, 0 a 1,1 0 1,0 2,0 a 1,1 0 1,0 -2,0 M 207.8 608 m -0.5, 0 a 0.5,0.5 0 1,0 1,0 a 0.5,0.5 0 1,0 -1,0  M207.8 608 L207.8 608 219.8 608 M 207.8 614 m -1, 0 a 1,1 0 1,0 2,0 a 1,1 0 1,0 -2,0 M 207.8 614 m -0.5, 0 a 0.5,0.5 0 1,0 1,0 a 0.5,0.5 0 1,0 -1,0  M207.8 614 L207.8 614 214.8 608 207.8 602 M 207.8 602 m -1, 0 a 1,1 0 1,0 2,0 a 1,1 0 1,0 -2,0 M 207.8 602 m -0.5, 0 a 0.5,0.5 0 1,0 1,0 a 0.5,0.5 0 1,0 -1,0  M219.8 608 Q 239.35 608, 258.9 452 T 298 296 M 310 296 m -1, 0 a 1,1 0 1,0 2,0 a 1,1 0 1,0 -2,0 M 310 296 m -0.5, 0 a 0.5,0.5 0 1,0 1,0 a 0.5,0.5 0 1,0 -1,0  M310 296 L310 296 298 296 M304 302 L304 302 304 290" id="h532090191" class="r"></path></g><g class="hrs"></g><g class="ts"><svg width="215.8" height="100" x="24" y="204" id="h198306241" class="t"><rect height="40" width="215.8" class="th"></rect><text x="13" y="25" class="tht">credit_card</text><rect height="60" width="215.8" class="t-bg" y="40"></rect><text x="13" y="61" class="tf pk">card_number<tspan x="202.8" class="ty">VARCHAR(20)</tspan></text><path d="M7,14A2,2 0 0,1 5,12A2,2 0 0,1 7,10A2,2 0 0,1 9,12A2,2 0 0,1 7,14M12.65,10C11.83,7.67 9.61,6 7, 6A6, 6 0 0, 0 1, 12A6, 6 0 0, 0 7, 18C9.61, 18 11.83, 16.33 12.65, 14H17V18H21V14H23V10H12.65Z" class="i pk" transform="translate(103.66666870117189, 48) scale(0.65)"></path><text x="13" y="86" class="tf fk">cardholder_id<tspan x="202.8" class="ty">int</tspan></text></svg><svg width="195.8" height="175" x="12" y="451" id="h3007999074" class="t"><rect height="40" width="195.8" class="th"></rect><text x="13" y="25" class="tht">transaction</text><rect height="135" width="195.8" class="t-bg" y="40"></rect><text x="13" y="61" class="tf pk">transaction_id<tspan x="182.8" class="ty">int</tspan></text><path d="M7,14A2,2 0 0,1 5,12A2,2 0 0,1 7,10A2,2 0 0,1 9,12A2,2 0 0,1 7,14M12.65,10C11.83,7.67 9.61,6 7, 6A6, 6 0 0, 0 1, 12A6, 6 0 0, 0 7, 18C9.61, 18 11.83, 16.33 12.65, 14H17V18H21V14H23V10H12.65Z" class="i pk" transform="translate(150.1333330154419, 48) scale(0.65)"></path><text x="13" y="86" class="tf">date<tspan x="182.8" class="ty">timestamp</tspan></text><text x="13" y="111" class="tf">amount<tspan x="182.8" class="ty">VARCHAR(30)</tspan></text><text x="13" y="136" class="tf fk">card_number<tspan x="182.8" class="ty">VARCHAR(20)</tspan></text><text x="13" y="161" class="tf fk">merchant_id<tspan x="182.8" class="ty">int</tspan></text></svg><svg width="211.13" height="100" x="20.5" y="334" id="h99212310" class="t"><rect height="40" width="211.13" class="th"></rect><text x="13" y="25" class="tht">card_holder</text><rect height="60" width="211.13" class="t-bg" y="40"></rect><text x="13" y="61" class="tf pk">cardholder_id<tspan x="198.13" class="ty">int</tspan></text><path d="M7,14A2,2 0 0,1 5,12A2,2 0 0,1 7,10A2,2 0 0,1 9,12A2,2 0 0,1 7,14M12.65,10C11.83,7.67 9.61,6 7, 6A6, 6 0 0, 0 1, 12A6, 6 0 0, 0 7, 18C9.61, 18 11.83, 16.33 12.65, 14H17V18H21V14H23V10H12.65Z" class="i pk" transform="translate(165.4633330154419, 48) scale(0.65)"></path><text x="13" y="86" class="tf">customer_name<tspan x="198.13" class="ty">VARCHAR(50)</tspan></text></svg><svg width="211.8" height="125" x="310" y="239" id="h1481749269" class="t"><rect height="40" width="211.8" class="th"></rect><text x="13" y="25" class="tht">merchant</text><rect height="85" width="211.8" class="t-bg" y="40"></rect><text x="13" y="61" class="tf pk">merchant_id<tspan x="198.8" class="ty">int</tspan></text><path d="M7,14A2,2 0 0,1 5,12A2,2 0 0,1 7,10A2,2 0 0,1 9,12A2,2 0 0,1 7,14M12.65,10C11.83,7.67 9.61,6 7, 6A6, 6 0 0, 0 1, 12A6, 6 0 0, 0 7, 18C9.61, 18 11.83, 16.33 12.65, 14H17V18H21V14H23V10H12.65Z" class="i pk" transform="translate(166.1333330154419, 48) scale(0.65)"></path><text x="13" y="86" class="tf">merchant_name<tspan x="198.8" class="ty">VARCHAR(20)</tspan></text><text x="13" y="111" class="tf fk">merchant_type_id<tspan x="198.8" class="ty">int</tspan></text></svg><svg width="224.47" height="100" x="292.5" y="422.5" id="h681307689" class="t"><rect height="40" width="224.47" class="th"></rect><text x="13" y="25" class="tht">merchant_cat</text><rect height="60" width="224.47" class="t-bg" y="40"></rect><text x="13" y="61" class="tf pk">merchant_type_id<tspan x="211.47" class="ty">int</tspan></text><path d="M7,14A2,2 0 0,1 5,12A2,2 0 0,1 7,10A2,2 0 0,1 9,12A2,2 0 0,1 7,14M12.65,10C11.83,7.67 9.61,6 7, 6A6, 6 0 0, 0 1, 12A6, 6 0 0, 0 7, 18C9.61, 18 11.83, 16.33 12.65, 14H17V18H21V14H23V10H12.65Z" class="i pk" transform="translate(178.8033330154419, 48) scale(0.65)"></path><text x="13" y="86" class="tf pk">merchant_type<tspan x="211.47" class="ty">VARCHAR(20)</tspan></text><path d="M7,14A2,2 0 0,1 5,12A2,2 0 0,1 7,10A2,2 0 0,1 9,12A2,2 0 0,1 7,14M12.65,10C11.83,7.67 9.61,6 7, 6A6, 6 0 0, 0 1, 12A6, 6 0 0, 0 7, 18C9.61, 18 11.83, 16.33 12.65, 14H17V18H21V14H23V10H12.65Z" class="i pk" transform="translate(112.33666870117187, 73) scale(0.65)"></path></svg></g></g><text class="qdbd-link" x="10" y="20">www.quickdatabasediagrams.com</text></svg>